# xmcd
# 
# Track frame offsets:
#     150
#     12448
#     29720
#     43894
#     59546
#     74902
#     89129
#     102133
#     117310
#     135017
# 
# Disc length: 2037
# 
# Revision: 2
# Processed by: cddbd v1.5.2PL0 Copyright (c) Steve Scherf et al.
# Submitted via: fre:ac v1.0.27
# 
DISCID=9507f30a
DTITLE=Wazoo - Pas de problème
DYEAR=2001
DGENRE=Folk
TTITLE0=La petite fille de la meunière
TTITLE1=Dis-moi que je rêve
TTITLE2=Avant 2020
TTITLE3=Un jour à l'ombrage
TTITLE4=Les maquisards
TTITLE5=La légende du Gévaudan
TTITLE6=Pas de porblème
TTITLE7=Laissez-moi
TTITLE8=Margarita
TTITLE9=La butte d'Usson
EXTD=Une Musique YEAR: 2001
EXTT0=
EXTT1=
EXTT2=
EXTT3=
EXTT4=
EXTT5=
EXTT6=
EXTT7=
EXTT8=
EXTT9=
PLAYORDER=
